Coordinates
version=1
nRows=14
nColumns=42
inDegrees=yes

Units are S.I. units (second, meters, Newtons, ...)
If the header above contains a line with 'inDegrees', this indicates whether rotational values are in degrees (yes) or radians (no).

endheader
time	pelvis_tilt	pelvis_list	pelvis_rotation	pelvis_tx	pelvis_ty	pelvis_tz	hip_flexion_r	hip_adduction_r	hip_rotation_r	knee_angle_r	knee_adduction_r	knee_angle_r_beta	ankle_angle_r	subtalar_angle_r	mtp_angle_r	hip_flexion_l	hip_adduction_l	hip_rotation_l	knee_angle_l	knee_adduction_l	knee_angle_l_beta	ankle_angle_l	subtalar_angle_l	mtp_angle_l	lumbar_extension	lumbar_bending	lumbar_rotation	arm_flex_r	arm_add_r	arm_rot_r	elbow_flex_r	pro_sup_r	wrist_flex_r	wrist_dev_r	arm_flex_l	arm_add_l	arm_rot_l	elbow_flex_l	pro_sup_l	wrist_flex_l	wrist_dev_l
      2.10000000	      1.00287526	      6.71420754	     15.13152463	      0.45567082	      0.89236572	      0.41453843	     21.44831871	    -18.18341513	    -20.24147713	     37.05261450	      3.44606899	      0.64669012	     12.80327816	     -0.68000877	     -7.60595462	      0.12423502	      1.32465796	     -1.59280787	      1.86512831	      5.33480056	      0.03255263	      8.86114738	     29.51949338	     -7.60595462	    -16.98751149	     -6.24406200	     -4.06456991	    -14.40643666	    -11.55404972	    -20.80252837	     74.54635559	     90.00000001	      0.00000000	      0.00000000	      3.93433892	    -25.88936875	     17.53123269	     85.99321552	     90.00000001	      0.00000000	      0.00000000
      2.11000000	      0.44896582	      6.99616982	     15.44645438	      0.45933442	      0.89140818	      0.41530399	     21.50062132	    -18.21699345	    -20.05734532	     34.62305915	      3.58236019	      0.60428638	     12.07943083	      0.30666767	     -7.60445807	      0.44801686	      1.72477185	     -1.40735258	      1.93731243	      5.14646304	      0.03381248	      8.99220362	     29.65467684	     -7.60445807	    -16.53425348	     -6.53494452	     -4.14448156	    -14.30476630	    -11.38762937	    -20.53432561	     74.09653395	     90.00000001	      0.00000000	      0.00000000	      4.11712319	    -26.04211611	     17.86900591	     86.34138305	     90.00000001	      0.00000000	      0.00000000
      2.12000000	      0.10036135	      7.19501476	     15.84059136	      0.46314395	      0.89084320	      0.41617780	     21.22246107	    -18.11373656	    -20.10164305	     32.50173165	      3.61161074	      0.56726223	     11.48192271	      1.16953035	     -7.60312035	      0.55543123	      1.93141834	     -1.12748851	      1.96864889	      5.02850177	      0.03435940	      9.20841751	     29.82871797	     -7.60312035	    -16.26001484	     -6.68163239	     -4.25294777	    -14.12470529	    -11.26003426	    -20.25238464	     73.51224621	     90.00000001	      0.00000000	      0.00000000	      4.33661119	    -26.16147926	     18.23528262	     86.60754670	     90.00000001	      0.00000000	      0.00000000
      2.13000000	      0.50199461	      7.14403442	     16.33696935	      0.46748713	      0.89146943	      0.41720983	     19.86896581	    -17.47596556	    -21.16759658	     30.41108123	      3.18740929	      0.53077350	     11.09486186	      2.59982785	     -7.59851962	     -0.10022413	      1.47288683	     -0.85468258	      1.98029174	      5.21130294	      0.03456261	      9.54886083	     30.22758739	     -7.59851962	    -16.68766862	     -6.31290210	     -4.44762556	    -13.83402391	    -11.20114463	    -19.96344643	     72.92520546	     90.00000001	      0.00000000	      0.00000000	      4.62667181	    -26.15313997	     18.51918209	     86.77353191	     90.00000001	      0.00000000	      0.00000000
      2.14000000	      0.13399682	      7.40049658	     16.68100446	      0.47145111	      0.89100598	      0.41836625	     19.78270901	    -17.46788162	    -21.22530492	     29.39250407	      3.00411129	      0.51299597	     10.91404993	      2.93193832	     -7.59772417	      0.02879035	      1.74245600	     -0.67476285	      2.07995444	      5.08619752	      0.03630205	      9.67063361	     30.30847340	     -7.59772417	    -16.36767582	     -6.56854783	     -4.48833230	    -13.70204024	    -11.05830341	    -19.79458642	     72.53499045	     90.00000001	      0.00000000	      0.00000000	      4.81648361	    -26.15194335	     18.74302302	     86.97948320	     90.00000001	      0.00000000	      0.00000000
      2.15000000	     -0.06674813	      7.46592425	     17.13023341	      0.47534233	      0.89098015	      0.41952065	     19.41773767	    -17.22813221	    -21.37818836	     28.48894460	      2.82730639	      0.49722588	     10.80501688	      3.29887894	     -7.59680855	      0.10788112	      1.81866493	     -0.25607373	      2.27159168	      4.83241539	      0.03964675	      9.89195331	     30.42610449	     -7.59680855	    -16.17277771	     -6.55598615	     -4.63076169	    -13.36941252	    -10.97407027	    -19.60248954	     71.85222428	     90.00000001	      0.00000000	      0.00000000	      5.03497856	    -26.13116442	     19.09362063	     87.10456428	     90.00000001	      0.00000000	      0.00000000
      2.16000000	     -0.21937436	      7.57162679	     17.33750967	      0.47950321	      0.89092676	      0.42097614	     19.32350768	    -17.16379316	    -21.34862265	     28.50081201	      2.80086202	      0.49743301	     10.79829456	      3.32240165	     -7.59664336	      0.04063922	      1.80601465	     -0.23756303	      2.37375614	      4.81238965	      0.04142986	      9.89740272	     30.38436499	     -7.59664336	    -16.00435202	     -6.59997247	     -4.55858009	    -13.22148444	    -10.93845633	    -19.54993725	     71.85396490	     90.00000001	      0.00000000	      0.00000000	      5.10980340	    -26.04374530	     19.11076122	     87.14721218	     90.00000001	      0.00000000	      0.00000000
      2.17000000	     -0.14228223	      7.37962990	     18.03021144	      0.48323611	      0.89170169	      0.42209151	     18.48438881	    -16.60188617	    -21.91483268	     27.69356254	      2.50967898	      0.48334385	     11.12017564	      3.44489989	     -7.59545282	      0.10513516	      1.56188522	      0.51300803	      2.87501433	      4.49923748	      0.05017847	     10.44266247	     30.36671375	     -7.59545282	    -16.05229570	     -6.19381919	     -4.89726893	    -12.57833922	    -10.93685969	    -19.28008575	     70.50239265	     90.00000001	      0.00000000	      0.00000000	      5.45951755	    -25.86928749	     19.61433021	     87.05914072	     90.00000001	      0.00000000	      0.00000000
      2.18000000	      0.06125659	      7.18093776	     18.49512717	      0.48730732	      0.89252370	      0.42345264	     17.73165592	    -16.12187895	    -22.41775642	     27.44344566	      2.40530963	      0.47897848	     11.32772654	      3.44328570	     -7.59395295	     -0.00688816	      1.10061567	      0.89484539	      3.35356706	      4.55869017	      0.05853079	     10.89669936	     30.09006863	     -7.59395295	    -16.18756251	     -5.76876685	     -5.02260143	    -12.19235357	    -11.00504833	    -19.13301065	     69.92129936	     90.00000001	      0.00000000	      0.00000000	      5.62347988	    -25.58435498	     19.72127063	     86.97415829	     90.00000001	      0.00000000	      0.00000000
      2.19000000	     -0.06867843	      7.22132919	     18.63824927	      0.49153091	      0.89293938	      0.42508311	     17.54169155	    -16.00938646	    -22.36173355	     27.53259583	      2.39628756	      0.48053445	     11.34589841	      3.45087772	     -7.59374416	     -0.03390710	      1.06369845	      0.97231281	      3.51377824	      4.49401340	      0.06132700	     10.88851811	     30.02969369	     -7.59374416	    -16.01602395	     -5.79473838	     -4.89455965	    -12.03884880	    -11.00314891	    -19.08387884	     69.89064655	     90.00000001	      0.00000000	      0.00000000	      5.65034352	    -25.36784757	     19.77653547	     87.03283623	     90.00000001	      0.00000000	      0.00000000
      2.20000000	      0.15317514	      6.76732167	     19.14424098	      0.49522933	      0.89395149	      0.42648103	     16.74111749	    -15.27939951	    -22.62086643	     27.16322611	      2.53028023	      0.47408773	     11.61567188	      2.91262083	     -7.59088548	      0.28526708	      0.43149093	      1.42812083	      4.64957385	      4.44209181	      0.08115037	     11.62650950	     29.24407264	     -7.59088548	    -16.13494044	     -5.09676510	     -4.98142883	    -11.54690475	    -11.24571087	    -18.88444511	     68.95413795	     90.00000001	      0.00000000	      0.00000000	      5.82501645	    -24.92673727	     19.86254076	     86.89689780	     90.00000001	      0.00000000	      0.00000000
      2.21000000	      0.15301750	      6.62890147	     19.34734753	      0.49917021	      0.89465722	      0.42802606	     16.34609528	    -15.02743583	    -22.60337673	     27.14648979	      2.75481094	      0.47379563	     11.92122066	      2.60566792	     -7.58960406	      0.50343640	      0.24840419	      1.52423912	      5.39334528	      4.32269937	      0.09413163	     11.75842386	     28.76596737	     -7.58960406	    -16.06807223	     -4.88295357	     -4.86017123	    -11.22964261	    -11.42763493	    -18.79797885	     68.45248603	     90.00000001	      0.00000000	      0.00000000	      5.91896051	    -24.55886590	     19.96942407	     86.73868849	     90.00000001	      0.00000000	      0.00000000
      2.22000000	      0.11829970	      6.38273511	     19.58138974	      0.50299397	      0.89532275	      0.42969195	     15.93795872	    -14.63980771	    -22.60798095	     26.92288041	      3.01228394	      0.46989291	     12.07954378	      2.19695459	     -7.58792819	      0.95810507	     -0.05606736	      1.59057997	      6.43594425	      4.28337699	      0.11232842	     12.12412224	     28.00256455	     -7.58792819	    -15.95304435	     -4.59519903	     -4.76266202	    -10.92770641	    -11.61705197	    -18.71338039	     67.99238353	     90.00000001	      0.00000000	      0.00000000	      5.95271490	    -24.18808382	     20.05106446	     86.68959572	     90.00000001	      0.00000000	      0.00000000
      2.23000000	      0.07168183	      6.12417515	     19.73486479	      0.50678154	      0.89591877	      0.43143463	     15.57920296	    -14.21568957	    -22.65248802	     26.65925526	      3.21673901	      0.46529178	     12.14306786	      1.82242501	     -7.58618837	      1.45218689	     -0.35221254	      1.61331003	      7.51999736	      4.24440266	      0.13124871	     12.45298004	     27.17240855	     -7.58618837	    -15.82482206	     -4.32220683	     -4.59359512	    -10.67960168	    -11.85514770	    -18.67069058	     67.65398002	     90.00000001	      0.00000000	      0.00000000	      5.95724016	    -23.81669311	     20.10564824	     86.69323906	     90.00000001	      0.00000000	      0.00000000
